<svg stroke="#fd0" stroke-linecap="round" stroke-linejoin="round" stroke-width="6" viewBox="0 0 270.1 78" xmlns="http://www.w3.org/2000/svg"><mask id="b" x="-1" y="-1" width="3" height="3"><path d="M0 0h200v78H0z" fill="#fff" stroke-width="0"/><path d="M27 33h72L77 75H5z" stroke="#000"/></mask><mask id="a"><path d="M0 0h100v78H0z" fill="#fff" stroke-width="0"/><path d="M26 5h72L76 47H4z" stroke="#000"/></mask><path d="M25 3h72L75 45H3z" fill="#555"/><path d="M25 33h72L75 75H3z" fill="#555" mask="url(#a)"/><circle cx="105" cy="57" r="15" fill="#0000" mask="url(#b)" stroke-width="11"/><circle cx="147" cy="57" r="15" fill="#0000" stroke-width="11"/><path d="M169.2 44h7L160 75h-7zm18.6-5h22l-2.9 5.5h-15L176 75h-7z" fill="#fd0"/><circle cx="228" cy="57" r="15" fill="#0000" stroke-width="11"/><path d="M260.1 25h7L241 75h-7z" fill="#fd0"/></svg>
