<svg style="stroke-linecap:round;stroke-linejoin:round;stroke:#fd0;stroke-width:6;" viewBox="0 0 270.1 78" width="100%"
  xmlns="http://www.w3.org/2000/svg">
  <mask id="layer3">

  </mask>
  <mask id="layer2" width="3" height="3" x="-1" y="-1">
    <rect x="0" y="0" width="200" height="78" fill="#fff" stroke-width="0" />
    <path d="M27 33L99 33L77 75L5 75Z" fill="#000" stroke="#000" />
  </mask>
  <mask id="layer1">
    <rect x="0" y="0" width="100" height="78" fill="#fff" stroke-width="0" />
    <path d="M26 5L98 5L76 47L4 47Z" fill="#000" stroke="#000" />
  </mask>

  <path d="M25 3L97 3L75 45L3 45Z" fill="#555" />
  <path d="M25 33L97 33L75 75L3 75Z" fill="#555" mask="url(#layer1)" />
  <circle cx="105" cy="57" r="15" stroke-width="11" fill="#0000" mask="url(#layer2)" />
  <circle cx="147" cy="57" r="15" stroke-width="11" fill="#0000" />
  <path d="M169.2 44L176.2 44L160 75L153 75Z" fill="#fd0" />
  <path d="M187.8 39L209.8 39 L206.9 44.5 L191.9 44.5 L176 75L169 75Z" fill="#fd0" />
  <circle cx="228" cy="57" r="15" stroke-width="11" fill="#0000" />
  <path d="M260.1 25L267.1 25L241 75L234 75Z" fill="#fd0" />
</svg>
